<svg xmlns="http://www.w3.org/2000/svg" xmlns:xlink="http://www.w3.org/1999/xlink" width="2000" zoomAndPan="magnify" viewBox="0 0 1500 1499.999933" height="2000" preserveAspectRatio="xMidYMid meet" version="1.0"><defs><g/><clipPath id="0665ceeb62"><path d="M 432.414062 675.625 L 632.664062 675.625 L 632.664062 946.375 L 432.414062 946.375 Z M 432.414062 675.625 " clip-rule="nonzero"/></clipPath></defs><g fill="#ffffff" fill-opacity="1"><g transform="translate(656.548169, 772.701465)"><g><path d="M 63.03125 -91.125 C 70.550781 -91.125 75.972656 -88.765625 79.296875 -84.046875 C 82.535156 -79.628906 84.15625 -72.957031 84.15625 -64.03125 L 84.15625 -64.703125 C 84.15625 -55.921875 82.535156 -49.25 79.296875 -44.6875 C 75.972656 -40.039062 70.550781 -37.71875 63.03125 -37.71875 L 25.21875 -37.609375 L 25.21875 -3.765625 C 25.21875 -2.066406 24.8125 -0.992188 24 -0.546875 C 23.1875 -0.109375 22.5625 0.109375 22.125 0.109375 L 11.9375 0.109375 C 11.5 0.109375 10.875 -0.109375 10.0625 -0.546875 C 9.25 -0.992188 8.84375 -2.066406 8.84375 -3.765625 L 8.84375 -50.203125 C 8.84375 -51.898438 9.25 -52.953125 10.0625 -53.359375 C 10.875 -53.765625 11.5 -53.96875 11.9375 -53.96875 L 60.15625 -53.96875 C 62.957031 -53.96875 64.914062 -54.78125 66.03125 -56.40625 C 67.207031 -58.019531 67.796875 -60.671875 67.796875 -64.359375 C 67.796875 -68.046875 67.207031 -70.703125 66.03125 -72.328125 C 64.914062 -73.953125 62.957031 -74.765625 60.15625 -74.765625 L 11.9375 -74.765625 C 11.5 -74.765625 10.875 -74.96875 10.0625 -75.375 C 9.25 -75.78125 8.84375 -76.828125 8.84375 -78.515625 L 8.84375 -87.265625 C 8.84375 -89.023438 9.25 -90.109375 10.0625 -90.515625 C 10.875 -90.921875 11.5 -91.125 11.9375 -91.125 Z M 63.03125 -91.125 "/></g></g></g><g fill="#ffffff" fill-opacity="1"><g transform="translate(755.083679, 772.701465)"><g><path d="M 84.265625 -64.703125 L 84.265625 -64.03125 C 84.265625 -64.101562 84.265625 -64.15625 84.265625 -64.1875 C 84.265625 -64.226562 84.265625 -64.285156 84.265625 -64.359375 C 84.265625 -64.429688 84.265625 -64.488281 84.265625 -64.53125 C 84.265625 -64.570312 84.265625 -64.628906 84.265625 -64.703125 Z M 86.375 -4.75 C 86.8125 -4.164062 86.957031 -3.28125 86.8125 -2.09375 C 86.59375 -0.625 85.742188 0.109375 84.265625 0.109375 L 72.109375 0.109375 C 71.148438 0.109375 70.375 -0.109375 69.78125 -0.546875 C 69.5625 -0.703125 69.359375 -0.925781 69.171875 -1.21875 C 68.992188 -1.507812 68.789062 -1.800781 68.5625 -2.09375 L 48.546875 -37.609375 L 25.21875 -37.609375 L 25.21875 -3.765625 C 25.21875 -2.066406 24.828125 -0.992188 24.046875 -0.546875 C 23.273438 -0.109375 22.632812 0.109375 22.125 0.109375 L 12.0625 0.109375 C 11.539062 0.109375 10.875 -0.109375 10.0625 -0.546875 C 9.25 -0.992188 8.84375 -2.066406 8.84375 -3.765625 L 8.84375 -50.203125 C 8.84375 -51.898438 9.25 -52.953125 10.0625 -53.359375 C 10.875 -53.765625 11.539062 -53.96875 12.0625 -53.96875 L 60.15625 -53.96875 C 62.957031 -53.96875 64.914062 -54.78125 66.03125 -56.40625 C 67.207031 -58.019531 67.796875 -60.671875 67.796875 -64.359375 C 67.796875 -68.046875 67.207031 -70.703125 66.03125 -72.328125 C 64.914062 -73.953125 62.957031 -74.765625 60.15625 -74.765625 L 12.0625 -74.765625 C 11.539062 -74.765625 10.875 -74.96875 10.0625 -75.375 C 9.25 -75.78125 8.84375 -76.828125 8.84375 -78.515625 L 8.84375 -87.265625 C 8.84375 -89.023438 9.25 -90.109375 10.0625 -90.515625 C 10.875 -90.921875 11.539062 -91.125 12.0625 -91.125 L 63.03125 -91.125 C 70.625 -91.125 76.082031 -88.765625 79.40625 -84.046875 C 82.570312 -79.472656 84.191406 -72.910156 84.265625 -64.359375 C 84.191406 -55.804688 82.570312 -49.25 79.40625 -44.6875 C 76.601562 -40.84375 72.472656 -38.59375 67.015625 -37.9375 Z M 86.375 -4.75 "/></g></g></g><g fill="#ffffff" fill-opacity="1"><g transform="translate(856.383921, 772.701465)"><g><path d="M 68.125 -80.84375 L 99.203125 -4.203125 C 99.640625 -3.171875 99.75 -2.285156 99.53125 -1.546875 C 99.457031 -1.253906 99.253906 -0.90625 98.921875 -0.5 C 98.585938 -0.09375 97.976562 0.109375 97.09375 0.109375 L 85.265625 0.109375 C 83.722656 0.109375 82.65625 -0.703125 82.0625 -2.328125 L 54.640625 -70.78125 C 54.554688 -70.925781 54.515625 -71 54.515625 -71 L 54.078125 -71 C 54.078125 -71 54.054688 -70.976562 54.015625 -70.9375 C 53.984375 -70.90625 53.929688 -70.816406 53.859375 -70.671875 L 39.703125 -34.84375 L 53.421875 -34.84375 C 54.960938 -34.84375 56.03125 -34.101562 56.625 -32.625 L 60.609375 -22.78125 C 60.972656 -21.53125 60.820312 -20.460938 60.15625 -19.578125 C 59.570312 -18.546875 58.613281 -18.03125 57.28125 -18.03125 L 33.0625 -18.03125 L 26.765625 -2.21875 C 26.171875 -0.664062 25.140625 0.109375 23.671875 0.109375 L 11.5 0.109375 C 10.613281 0.109375 10.003906 -0.09375 9.671875 -0.5 C 9.335938 -0.90625 9.132812 -1.253906 9.0625 -1.546875 C 8.84375 -2.210938 8.921875 -3.097656 9.296875 -4.203125 L 40.140625 -80.84375 C 41.617188 -84.75 43.242188 -87.441406 45.015625 -88.921875 C 45.234375 -89.066406 45.488281 -89.25 45.78125 -89.46875 C 46.082031 -89.6875 46.378906 -89.867188 46.671875 -90.015625 C 48.878906 -91.566406 51.421875 -92.34375 54.296875 -92.34375 C 57.316406 -92.34375 60.046875 -91.421875 62.484375 -89.578125 C 64.921875 -87.734375 66.582031 -85.375 67.46875 -82.5 C 67.613281 -82.28125 67.738281 -82.019531 67.84375 -81.71875 C 67.957031 -81.425781 68.050781 -81.132812 68.125 -80.84375 Z M 68.125 -80.84375 "/></g></g></g><g fill="#ffffff" fill-opacity="1"><g transform="translate(970.512589, 772.701465)"><g><path d="M 22.125 -91.125 C 22.5625 -91.125 23.1875 -90.898438 24 -90.453125 C 24.8125 -90.015625 25.21875 -88.953125 25.21875 -87.265625 L 25.21875 -3.765625 C 25.21875 -2.066406 24.8125 -0.992188 24 -0.546875 C 23.1875 -0.109375 22.5625 0.109375 22.125 0.109375 L 11.9375 0.109375 C 11.5 0.109375 10.875 -0.109375 10.0625 -0.546875 C 9.25 -0.992188 8.84375 -2.066406 8.84375 -3.765625 L 8.84375 -87.265625 C 8.84375 -88.953125 9.25 -90.015625 10.0625 -90.453125 C 10.875 -90.898438 11.5 -91.125 11.9375 -91.125 Z M 22.125 -91.125 "/></g></g></g><g fill="#ffffff" fill-opacity="1"><g transform="translate(1010.103741, 772.701465)"><g><path d="M 84.265625 -64.703125 L 84.265625 -64.03125 C 84.265625 -64.101562 84.265625 -64.15625 84.265625 -64.1875 C 84.265625 -64.226562 84.265625 -64.285156 84.265625 -64.359375 C 84.265625 -64.429688 84.265625 -64.488281 84.265625 -64.53125 C 84.265625 -64.570312 84.265625 -64.628906 84.265625 -64.703125 Z M 86.375 -4.75 C 86.8125 -4.164062 86.957031 -3.28125 86.8125 -2.09375 C 86.59375 -0.625 85.742188 0.109375 84.265625 0.109375 L 72.109375 0.109375 C 71.148438 0.109375 70.375 -0.109375 69.78125 -0.546875 C 69.5625 -0.703125 69.359375 -0.925781 69.171875 -1.21875 C 68.992188 -1.507812 68.789062 -1.800781 68.5625 -2.09375 L 48.546875 -37.609375 L 25.21875 -37.609375 L 25.21875 -3.765625 C 25.21875 -2.066406 24.828125 -0.992188 24.046875 -0.546875 C 23.273438 -0.109375 22.632812 0.109375 22.125 0.109375 L 12.0625 0.109375 C 11.539062 0.109375 10.875 -0.109375 10.0625 -0.546875 C 9.25 -0.992188 8.84375 -2.066406 8.84375 -3.765625 L 8.84375 -50.203125 C 8.84375 -51.898438 9.25 -52.953125 10.0625 -53.359375 C 10.875 -53.765625 11.539062 -53.96875 12.0625 -53.96875 L 60.15625 -53.96875 C 62.957031 -53.96875 64.914062 -54.78125 66.03125 -56.40625 C 67.207031 -58.019531 67.796875 -60.671875 67.796875 -64.359375 C 67.796875 -68.046875 67.207031 -70.703125 66.03125 -72.328125 C 64.914062 -73.953125 62.957031 -74.765625 60.15625 -74.765625 L 12.0625 -74.765625 C 11.539062 -74.765625 10.875 -74.96875 10.0625 -75.375 C 9.25 -75.78125 8.84375 -76.828125 8.84375 -78.515625 L 8.84375 -87.265625 C 8.84375 -89.023438 9.25 -90.109375 10.0625 -90.515625 C 10.875 -90.921875 11.539062 -91.125 12.0625 -91.125 L 63.03125 -91.125 C 70.625 -91.125 76.082031 -88.765625 79.40625 -84.046875 C 82.570312 -79.472656 84.191406 -72.910156 84.265625 -64.359375 C 84.191406 -55.804688 82.570312 -49.25 79.40625 -44.6875 C 76.601562 -40.84375 72.472656 -38.59375 67.015625 -37.9375 Z M 86.375 -4.75 "/></g></g></g><g fill="#ffffff" fill-opacity="1"><g transform="translate(1111.403995, 772.701465)"><g><path d="M 22.125 -91.125 C 22.5625 -91.125 23.1875 -90.898438 24 -90.453125 C 24.8125 -90.015625 25.21875 -88.953125 25.21875 -87.265625 L 25.21875 -3.765625 C 25.21875 -2.066406 24.8125 -0.992188 24 -0.546875 C 23.1875 -0.109375 22.5625 0.109375 22.125 0.109375 L 11.9375 0.109375 C 11.5 0.109375 10.875 -0.109375 10.0625 -0.546875 C 9.25 -0.992188 8.84375 -2.066406 8.84375 -3.765625 L 8.84375 -87.265625 C 8.84375 -88.953125 9.25 -90.015625 10.0625 -90.453125 C 10.875 -90.898438 11.5 -91.125 11.9375 -91.125 Z M 22.125 -91.125 "/></g></g></g><g fill="#ffffff" fill-opacity="1"><g transform="translate(1150.995148, 772.701465)"><g><path d="M 75.3125 -19.796875 C 75.832031 -19.796875 76.492188 -19.59375 77.296875 -19.1875 C 78.109375 -18.78125 78.515625 -17.726562 78.515625 -16.03125 L 78.515625 -3.875 C 78.515625 -2.175781 78.109375 -1.125 77.296875 -0.71875 C 76.492188 -0.3125 75.832031 -0.109375 75.3125 -0.109375 L 36.046875 -0.109375 C 33.617188 -0.109375 31.367188 -0.253906 29.296875 -0.546875 C 27.234375 -0.847656 25.359375 -1.328125 23.671875 -1.984375 C 20.054688 -3.242188 17.179688 -5.273438 15.046875 -8.078125 C 12.828125 -10.953125 11.238281 -14.5625 10.28125 -18.90625 C 9.914062 -20.75 9.601562 -22.773438 9.34375 -24.984375 C 9.082031 -27.203125 8.914062 -29.601562 8.84375 -32.1875 L 8.84375 -32.734375 L 9.0625 -46.671875 C 9.289062 -47.484375 9.695312 -48.40625 10.28125 -49.4375 C 11.90625 -52.3125 14.414062 -53.859375 17.8125 -54.078125 L 74.875 -54.1875 C 75.3125 -54.1875 75.9375 -53.984375 76.75 -53.578125 C 77.5625 -53.171875 77.96875 -52.125 77.96875 -50.4375 L 77.96875 -41.6875 C 77.96875 -40 77.5625 -38.929688 76.75 -38.484375 C 75.9375 -38.046875 75.3125 -37.828125 74.875 -37.828125 L 25.4375 -37.828125 C 25.4375 -37.828125 25.414062 -37.421875 25.375 -36.609375 C 25.34375 -35.796875 25.304688 -34.875 25.265625 -33.84375 C 25.234375 -32.8125 25.21875 -31.890625 25.21875 -31.078125 C 25.21875 -30.265625 25.21875 -29.859375 25.21875 -29.859375 C 25.289062 -29.566406 25.328125 -29.253906 25.328125 -28.921875 C 25.328125 -28.585938 25.363281 -28.273438 25.4375 -27.984375 C 25.726562 -25.921875 26.351562 -24.257812 27.3125 -23 C 28.195312 -21.894531 29.304688 -21.085938 30.640625 -20.578125 C 31.441406 -20.347656 32.300781 -20.160156 33.21875 -20.015625 C 34.144531 -19.867188 35.203125 -19.796875 36.390625 -19.796875 Z M 18.578125 -53.203125 Z M 75.421875 -91.34375 C 75.867188 -91.34375 76.492188 -91.117188 77.296875 -90.671875 C 78.109375 -90.234375 78.515625 -89.171875 78.515625 -87.484375 L 78.515625 -78.75 C 78.515625 -77.050781 78.109375 -75.976562 77.296875 -75.53125 C 76.492188 -75.09375 75.867188 -74.875 75.421875 -74.875 L 11.828125 -74.984375 C 11.390625 -74.984375 10.78125 -75.1875 10 -75.59375 C 9.226562 -76 8.84375 -77.050781 8.84375 -78.75 L 8.84375 -87.375 C 8.84375 -89.132812 9.226562 -90.234375 10 -90.671875 C 10.78125 -91.117188 11.390625 -91.34375 11.828125 -91.34375 Z M 75.421875 -91.34375 "/></g></g></g><g fill="#ffffff" fill-opacity="1"><g transform="translate(1033.158633, 857.341418)"><g><path d="M 15.21875 0 L 15.21875 -28.609375 L 3.703125 -28.609375 L 3.703125 -33.59375 L 32.25 -33.59375 L 32.25 -28.609375 L 20.40625 -28.609375 L 20.40625 0 Z M 15.21875 0 "/></g></g></g><g fill="#ffffff" fill-opacity="1"><g transform="translate(1085.094583, 857.341418)"><g><path d="M 7.296875 -33.59375 L 32.734375 -33.59375 L 32.734375 -28.609375 L 12.484375 -28.609375 L 12.484375 -19.734375 L 30.09375 -19.734375 L 30.09375 -14.734375 L 12.484375 -14.734375 L 12.484375 -4.984375 L 32.734375 -4.984375 L 32.734375 0 L 7.296875 0 Z M 7.296875 -33.59375 "/></g></g></g><g fill="#ffffff" fill-opacity="1"><g transform="translate(1140.054532, 857.341418)"><g><path d="M 37.015625 -4.703125 C 36.179688 -3.929688 35.054688 -3.144531 33.640625 -2.34375 C 32.234375 -1.550781 30.609375 -0.878906 28.765625 -0.328125 C 26.929688 0.210938 24.988281 0.484375 22.9375 0.484375 C 20.382812 0.484375 18.003906 0.078125 15.796875 -0.734375 C 13.585938 -1.554688 11.65625 -2.71875 10 -4.21875 C 8.351562 -5.726562 7.066406 -7.546875 6.140625 -9.671875 C 5.210938 -11.796875 4.75 -14.171875 4.75 -16.796875 C 4.75 -19.265625 5.238281 -21.535156 6.21875 -23.609375 C 7.195312 -25.691406 8.53125 -27.5 10.21875 -29.03125 C 11.914062 -30.570312 13.867188 -31.765625 16.078125 -32.609375 C 18.285156 -33.460938 20.625 -33.890625 23.09375 -33.890625 C 25.132812 -33.890625 27.078125 -33.609375 28.921875 -33.046875 C 30.765625 -32.484375 32.410156 -31.769531 33.859375 -30.90625 C 35.316406 -30.039062 36.492188 -29.144531 37.390625 -28.21875 L 34.171875 -24.09375 C 32.640625 -25.4375 30.9375 -26.546875 29.0625 -27.421875 C 27.1875 -28.304688 25.097656 -28.75 22.796875 -28.75 C 21.171875 -28.75 19.597656 -28.476562 18.078125 -27.9375 C 16.554688 -27.394531 15.191406 -26.601562 13.984375 -25.5625 C 12.785156 -24.519531 11.828125 -23.257812 11.109375 -21.78125 C 10.390625 -20.3125 10.03125 -18.648438 10.03125 -16.796875 C 10.03125 -14.109375 10.660156 -11.859375 11.921875 -10.046875 C 13.191406 -8.242188 14.847656 -6.882812 16.890625 -5.96875 C 18.941406 -5.0625 21.148438 -4.609375 23.515625 -4.609375 C 25.179688 -4.609375 26.6875 -4.832031 28.03125 -5.28125 C 29.375 -5.726562 30.570312 -6.285156 31.625 -6.953125 C 32.6875 -7.628906 33.632812 -8.300781 34.46875 -8.96875 Z M 37.015625 -4.703125 "/></g></g></g><g fill="#ffffff" fill-opacity="1"><g transform="translate(1197.894478, 857.341418)"><g><path d="M 12.484375 -33.59375 L 12.484375 -19.109375 L 33.5 -19.109375 L 33.5 -33.59375 L 38.6875 -33.59375 L 38.6875 0 L 33.5 0 L 33.5 -14.109375 L 12.484375 -14.109375 L 12.484375 0 L 7.296875 0 L 7.296875 -33.59375 Z M 12.484375 -33.59375 "/></g></g></g><g fill="#ffffff" fill-opacity="1"><g transform="translate(813.994589, 924.091412)"><g><path d="M 8.15625 -10.265625 C 9.851562 -8.347656 11.628906 -6.851562 13.484375 -5.78125 C 15.335938 -4.707031 17.628906 -4.171875 20.359375 -4.171875 C 21.796875 -4.171875 23.1875 -4.363281 24.53125 -4.75 C 25.875 -5.132812 26.976562 -5.703125 27.84375 -6.453125 C 28.707031 -7.203125 29.140625 -8.15625 29.140625 -9.3125 C 29.140625 -10.914062 28.265625 -12.050781 26.515625 -12.71875 C 24.773438 -13.394531 22.335938 -13.957031 19.203125 -14.40625 C 15.296875 -14.976562 12.195312 -16.03125 9.90625 -17.5625 C 7.625 -19.101562 6.484375 -21.363281 6.484375 -24.34375 C 6.484375 -26.351562 7.097656 -28.085938 8.328125 -29.546875 C 9.554688 -31.003906 11.210938 -32.125 13.296875 -32.90625 C 15.378906 -33.6875 17.679688 -34.078125 20.203125 -34.078125 C 23.335938 -34.078125 26.039062 -33.566406 28.3125 -32.546875 C 30.59375 -31.523438 32.40625 -30.066406 33.75 -28.171875 L 30.1875 -24.4375 C 29.070312 -25.90625 27.664062 -27.101562 25.96875 -28.03125 C 24.269531 -28.957031 22.300781 -29.421875 20.0625 -29.421875 C 17.757812 -29.421875 15.832031 -29.007812 14.28125 -28.1875 C 12.726562 -27.375 11.953125 -26.234375 11.953125 -24.765625 C 11.953125 -23.617188 12.328125 -22.695312 13.078125 -22 C 13.828125 -21.3125 14.878906 -20.769531 16.234375 -20.375 C 17.597656 -19.976562 19.195312 -19.648438 21.03125 -19.390625 C 22.78125 -19.140625 24.460938 -18.8125 26.078125 -18.40625 C 27.703125 -18.007812 29.15625 -17.46875 30.4375 -16.78125 C 31.71875 -16.09375 32.734375 -15.21875 33.484375 -14.15625 C 34.234375 -13.101562 34.609375 -11.789062 34.609375 -10.21875 C 34.609375 -8.039062 34.015625 -6.148438 32.828125 -4.546875 C 31.648438 -2.953125 29.972656 -1.710938 27.796875 -0.828125 C 25.617188 0.046875 23.054688 0.484375 20.109375 0.484375 C 16.941406 0.484375 14.078125 -0.0234375 11.515625 -1.046875 C 8.960938 -2.078125 6.722656 -3.742188 4.796875 -6.046875 Z M 8.15625 -10.265625 "/></g></g></g><g fill="#ffffff" fill-opacity="1"><g transform="translate(869.482533, 924.091412)"><g><path d="M 7.296875 -33.59375 L 32.734375 -33.59375 L 32.734375 -28.609375 L 12.484375 -28.609375 L 12.484375 -19.734375 L 30.09375 -19.734375 L 30.09375 -14.734375 L 12.484375 -14.734375 L 12.484375 -4.984375 L 32.734375 -4.984375 L 32.734375 0 L 7.296875 0 Z M 7.296875 -33.59375 "/></g></g></g><g fill="#ffffff" fill-opacity="1"><g transform="translate(924.442482, 924.091412)"><g><path d="M 35.8125 -23.140625 C 35.8125 -20.867188 35.113281 -18.828125 33.71875 -17.015625 C 32.320312 -15.203125 30.554688 -13.914062 28.421875 -13.15625 L 37.53125 0.046875 L 31.109375 0 L 22.5625 -12.484375 L 12.484375 -12.484375 L 12.484375 0 L 7.296875 0 L 7.296875 -33.59375 L 25.015625 -33.59375 C 26.898438 -33.59375 28.65625 -33.144531 30.28125 -32.25 C 31.914062 -31.351562 33.242188 -30.117188 34.265625 -28.546875 C 35.296875 -26.984375 35.8125 -25.179688 35.8125 -23.140625 Z M 23.765625 -28.609375 L 12.484375 -28.609375 L 12.484375 -17.46875 L 24.234375 -17.46875 C 25.390625 -17.46875 26.429688 -17.734375 27.359375 -18.265625 C 28.285156 -18.796875 29.015625 -19.488281 29.546875 -20.34375 C 30.078125 -21.207031 30.34375 -22.140625 30.34375 -23.140625 C 30.34375 -24.191406 30.046875 -25.132812 29.453125 -25.96875 C 28.859375 -26.800781 28.054688 -27.445312 27.046875 -27.90625 C 26.035156 -28.375 24.941406 -28.609375 23.765625 -28.609375 Z M 23.765625 -28.609375 "/></g></g></g><g fill="#ffffff" fill-opacity="1"><g transform="translate(983.482421, 924.091412)"><g><path d="M 38.359375 -33.59375 L 23.8125 0 L 18 0 L 3.265625 -33.59375 L 9.125 -33.59375 L 17.765625 -13.4375 C 18.273438 -12.21875 18.832031 -10.921875 19.4375 -9.546875 C 20.050781 -8.171875 20.613281 -6.828125 21.125 -5.515625 C 21.601562 -6.828125 22.128906 -8.160156 22.703125 -9.515625 C 23.273438 -10.878906 23.800781 -12.171875 24.28125 -13.390625 L 32.296875 -33.59375 Z M 38.359375 -33.59375 "/></g></g></g><g fill="#ffffff" fill-opacity="1"><g transform="translate(1041.082361, 924.091412)"><g><path d="M 27.40625 0 L 7.109375 0 L 7.109375 -4.984375 L 14.640625 -4.984375 L 14.640625 -28.609375 L 7.109375 -28.609375 L 7.109375 -33.59375 L 27.40625 -33.59375 L 27.40625 -28.609375 L 19.828125 -28.609375 L 19.828125 -4.984375 L 27.40625 -4.984375 Z M 27.40625 0 "/></g></g></g><g fill="#ffffff" fill-opacity="1"><g transform="translate(1091.578313, 924.091412)"><g><path d="M 37.015625 -4.703125 C 36.179688 -3.929688 35.054688 -3.144531 33.640625 -2.34375 C 32.234375 -1.550781 30.609375 -0.878906 28.765625 -0.328125 C 26.929688 0.210938 24.988281 0.484375 22.9375 0.484375 C 20.382812 0.484375 18.003906 0.078125 15.796875 -0.734375 C 13.585938 -1.554688 11.65625 -2.71875 10 -4.21875 C 8.351562 -5.726562 7.066406 -7.546875 6.140625 -9.671875 C 5.210938 -11.796875 4.75 -14.171875 4.75 -16.796875 C 4.75 -19.265625 5.238281 -21.535156 6.21875 -23.609375 C 7.195312 -25.691406 8.53125 -27.5 10.21875 -29.03125 C 11.914062 -30.570312 13.867188 -31.765625 16.078125 -32.609375 C 18.285156 -33.460938 20.625 -33.890625 23.09375 -33.890625 C 25.132812 -33.890625 27.078125 -33.609375 28.921875 -33.046875 C 30.765625 -32.484375 32.410156 -31.769531 33.859375 -30.90625 C 35.316406 -30.039062 36.492188 -29.144531 37.390625 -28.21875 L 34.171875 -24.09375 C 32.640625 -25.4375 30.9375 -26.546875 29.0625 -27.421875 C 27.1875 -28.304688 25.097656 -28.75 22.796875 -28.75 C 21.171875 -28.75 19.597656 -28.476562 18.078125 -27.9375 C 16.554688 -27.394531 15.191406 -26.601562 13.984375 -25.5625 C 12.785156 -24.519531 11.828125 -23.257812 11.109375 -21.78125 C 10.390625 -20.3125 10.03125 -18.648438 10.03125 -16.796875 C 10.03125 -14.109375 10.660156 -11.859375 11.921875 -10.046875 C 13.191406 -8.242188 14.847656 -6.882812 16.890625 -5.96875 C 18.941406 -5.0625 21.148438 -4.609375 23.515625 -4.609375 C 25.179688 -4.609375 26.6875 -4.832031 28.03125 -5.28125 C 29.375 -5.726562 30.570312 -6.285156 31.625 -6.953125 C 32.6875 -7.628906 33.632812 -8.300781 34.46875 -8.96875 Z M 37.015625 -4.703125 "/></g></g></g><g fill="#ffffff" fill-opacity="1"><g transform="translate(1149.418259, 924.091412)"><g><path d="M 7.296875 -33.59375 L 32.734375 -33.59375 L 32.734375 -28.609375 L 12.484375 -28.609375 L 12.484375 -19.734375 L 30.09375 -19.734375 L 30.09375 -14.734375 L 12.484375 -14.734375 L 12.484375 -4.984375 L 32.734375 -4.984375 L 32.734375 0 L 7.296875 0 Z M 7.296875 -33.59375 "/></g></g></g><g fill="#ffffff" fill-opacity="1"><g transform="translate(1204.378208, 924.091412)"><g><path d="M 8.15625 -10.265625 C 9.851562 -8.347656 11.628906 -6.851562 13.484375 -5.78125 C 15.335938 -4.707031 17.628906 -4.171875 20.359375 -4.171875 C 21.796875 -4.171875 23.1875 -4.363281 24.53125 -4.75 C 25.875 -5.132812 26.976562 -5.703125 27.84375 -6.453125 C 28.707031 -7.203125 29.140625 -8.15625 29.140625 -9.3125 C 29.140625 -10.914062 28.265625 -12.050781 26.515625 -12.71875 C 24.773438 -13.394531 22.335938 -13.957031 19.203125 -14.40625 C 15.296875 -14.976562 12.195312 -16.03125 9.90625 -17.5625 C 7.625 -19.101562 6.484375 -21.363281 6.484375 -24.34375 C 6.484375 -26.351562 7.097656 -28.085938 8.328125 -29.546875 C 9.554688 -31.003906 11.210938 -32.125 13.296875 -32.90625 C 15.378906 -33.6875 17.679688 -34.078125 20.203125 -34.078125 C 23.335938 -34.078125 26.039062 -33.566406 28.3125 -32.546875 C 30.59375 -31.523438 32.40625 -30.066406 33.75 -28.171875 L 30.1875 -24.4375 C 29.070312 -25.90625 27.664062 -27.101562 25.96875 -28.03125 C 24.269531 -28.957031 22.300781 -29.421875 20.0625 -29.421875 C 17.757812 -29.421875 15.832031 -29.007812 14.28125 -28.1875 C 12.726562 -27.375 11.953125 -26.234375 11.953125 -24.765625 C 11.953125 -23.617188 12.328125 -22.695312 13.078125 -22 C 13.828125 -21.3125 14.878906 -20.769531 16.234375 -20.375 C 17.597656 -19.976562 19.195312 -19.648438 21.03125 -19.390625 C 22.78125 -19.140625 24.460938 -18.8125 26.078125 -18.40625 C 27.703125 -18.007812 29.15625 -17.46875 30.4375 -16.78125 C 31.71875 -16.09375 32.734375 -15.21875 33.484375 -14.15625 C 34.234375 -13.101562 34.609375 -11.789062 34.609375 -10.21875 C 34.609375 -8.039062 34.015625 -6.148438 32.828125 -4.546875 C 31.648438 -2.953125 29.972656 -1.710938 27.796875 -0.828125 C 25.617188 0.046875 23.054688 0.484375 20.109375 0.484375 C 16.941406 0.484375 14.078125 -0.0234375 11.515625 -1.046875 C 8.960938 -2.078125 6.722656 -3.742188 4.796875 -6.046875 Z M 8.15625 -10.265625 "/></g></g></g><g clip-path="url(#0665ceeb62)"><path fill="#849bff" d="M 432.414062 675.65625 L 532.351562 675.65625 C 587.339844 675.65625 632.289062 720.632812 632.289062 775.59375 C 632.289062 818.183594 604.964844 856.355469 564.710938 870.171875 C 545.738281 876.671875 531.3125 873.980469 517.292969 893.765625 C 515.386719 896.457031 512.441406 895.824219 512.367188 893.082031 C 510.4375 839.238281 580.023438 835.097656 576.164062 780.851562 C 573.445312 742.78125 535.757812 726.5 514.195312 736.457031 C 500.023438 743.007812 502.027344 744.558594 491.921875 746.386719 C 483.566406 747.886719 474.449219 748.445312 472.085938 751.441406 C 501.242188 755.757812 518.132812 771.429688 517.597656 783.210938 C 517.039062 795.632812 483.820312 841.066406 499.03125 946.617188 L 432.414062 946.617188 Z M 525.445312 755.097656 C 529.203125 755.097656 532.277344 752.632812 532.277344 749.613281 C 532.277344 746.5625 529.203125 744.101562 525.445312 744.101562 C 521.6875 744.101562 518.613281 746.5625 518.613281 749.613281 C 518.613281 752.632812 521.6875 755.097656 525.445312 755.097656 Z M 525.445312 755.097656 " fill-opacity="1" fill-rule="evenodd"/></g></svg>